<svg width="133" height="133" viewBox="0 0 133 133" fill="none" xmlns="http://www.w3.org/2000/svg">
<path d="M44.4853 103.231C44.4853 103.75 43.8685 104.166 43.0909 104.166C42.206 104.244 41.5893 103.828 41.5893 103.231C41.5893 102.711 42.2061 102.296 42.9837 102.296C43.7881 102.218 44.4853 102.633 44.4853 103.231ZM36.146 102.062C35.9583 102.581 36.4946 103.179 37.299 103.335C37.9962 103.595 38.8006 103.335 38.9615 102.815C39.1224 102.296 38.6129 101.698 37.8085 101.464C37.1113 101.283 36.3337 101.542 36.146 102.062ZM47.998 101.62C47.2204 101.802 46.6841 102.296 46.7645 102.893C46.845 103.413 47.5421 103.75 48.3466 103.569C49.1242 103.387 49.6605 102.893 49.58 102.374C49.4996 101.88 48.7756 101.542 47.998 101.62ZM65.6419 2.07812C28.4502 2.07812 0 29.4314 0 65.4609C0 94.2689 18.7165 118.921 45.4506 127.597C48.8829 128.194 50.0895 126.142 50.0895 124.454C50.0895 122.843 50.0091 113.959 50.0091 108.504C50.0091 108.504 31.2389 112.401 27.2972 100.763C27.2972 100.763 24.2403 93.2039 19.8427 91.2557C19.8427 91.2557 13.7022 87.1773 20.2718 87.2553C20.2718 87.2553 26.9486 87.7748 30.6222 93.9572C36.4946 103.984 46.3355 101.101 50.17 99.3863C50.7867 95.2301 52.5296 92.3467 54.4603 90.6322C39.471 89.0217 24.3476 86.9176 24.3476 61.9281C24.3476 54.7846 26.3855 51.1998 30.6758 46.6279C29.9786 44.9395 27.6994 37.9777 31.373 28.9898C36.9772 27.3014 49.875 36.0035 49.875 36.0035C55.2379 34.5488 61.003 33.7955 66.7145 33.7955C72.426 33.7955 78.1911 34.5488 83.554 36.0035C83.554 36.0035 96.4518 27.2754 102.056 28.9898C105.73 38.0037 103.45 44.9395 102.753 46.6279C107.044 51.2258 109.671 54.8105 109.671 61.9281C109.671 86.9955 93.8776 88.9957 78.8883 90.6322C81.3552 92.6844 83.4468 96.5809 83.4468 102.685C83.4468 111.439 83.3663 122.272 83.3663 124.402C83.3663 126.09 84.5998 128.142 88.0052 127.545C114.82 118.921 133 94.2689 133 65.4609C133 29.4314 102.834 2.07812 65.6419 2.07812ZM26.0637 91.6713C25.7151 91.9311 25.7956 92.5285 26.2514 93.0221C26.6804 93.4377 27.2972 93.6195 27.6458 93.2818C27.9944 93.0221 27.9139 92.4246 27.4581 91.9311C27.029 91.5154 26.4123 91.3336 26.0637 91.6713ZM23.1677 89.5672C22.98 89.9049 23.2482 90.3205 23.7845 90.5803C24.2135 90.84 24.7498 90.7621 24.9375 90.3984C25.1252 90.0607 24.8571 89.6451 24.3208 89.3854C23.7845 89.2295 23.3554 89.3074 23.1677 89.5672ZM31.8556 98.8148C31.4266 99.1525 31.5875 99.9318 32.2042 100.425C32.821 101.023 33.5986 101.101 33.9472 100.685C34.2958 100.347 34.1349 99.5682 33.5986 99.0746C33.0087 98.4771 32.2042 98.3992 31.8556 98.8148ZM28.7988 94.9963C28.3698 95.2561 28.3698 95.9314 28.7988 96.5289C29.2278 97.1264 29.9518 97.3861 30.3004 97.1264C30.7294 96.7887 30.7294 96.1133 30.3004 95.5158C29.925 94.9184 29.2278 94.6586 28.7988 94.9963Z" fill="white"/>
</svg>
